<?xml version="1.0" encoding="UTF-8"?>
<svg id="Calque_1" data-name="Calque 1" xmlns="http://www.w3.org/2000/svg" viewBox="0 0 71.16 67.52">
  <defs>
    <style>
      .cls-1 {
        fill: none;
        stroke: #8226bb;
        stroke-linecap: round;
        stroke-width: 6px;
      }
    </style>
  </defs>
  <path class="cls-1" d="M23.44,15.28c-5.19,1.59-11.07,2.72-15.86,5.56-1.17.69-3.72,1.93-4.48,3.19-.84,1.4,3.43,5.59,3.89,6.13,1.87,2.23,3.76,6.75,6.4,8.06"/>
  <path class="cls-1" d="M18.36,57.71c5.38-6.9,11.41-13.2,16.78-20.11,3.6-4.64,7.12-9.36,10.81-13.92,2.22-2.73,4.84-5.14,6.82-8.07,1.43-2.11,3.13-3.7,5.02-5.35"/>
  <path class="cls-1" d="M57.03,31.34c2.14,3.2,4.14,6.61,7.07,9.08,1.08.91,2.28,1.62,3.38,2.5,1,.8.87,1.41-.22,2.09-4.79,2.97-10.23,4.88-15.3,7.22-2.15.99-4.31,1.78-6.56,2.43-.56.16-1.16.29-1.49.82"/>
</svg>