<?xml version="1.0" encoding="UTF-8"?>
<svg id="Calque_1" data-name="Calque 1" xmlns="http://www.w3.org/2000/svg" viewBox="0 0 73.89 66.52">
  <defs>
    <style>
      .cls-1 {
        fill: none;
        stroke: #851dbf;
        stroke-linecap: round;
        stroke-width: 5px;
      }
    </style>
  </defs>
  <path class="cls-1" d="M63.07,14.49c-5.93-.77-11.52-2.49-17.36-3.69-6.48-1.34-12.69-2.94-18.98-4.96-2.94-.94-5.91-1.96-8.73-3.26-1.68-.77-2.13,4.48-2.26,5.19-1.2,6.46-2.42,12.97-4.58,19.19-.67,1.94-1.45,3.85-2.32,5.71-.3.64-.73,1.35-.78,2.07-.11,1.56,1.47,2.75,2.3,4.09,1.34,2.19,2.43,4.53,3.88,6.65,1.69,2.46,3.62,4.75,5.24,7.25,1.55,2.38,3.32,4.59,4.84,6.98.78,1.22,1.49,2.46,2.43,3.56.41.48.56.74,1.22.74,1.44,0,3.08-.76,4.43-1.17,2.98-.89,5.9-1.97,8.87-2.93,4.17-1.34,8.42-2.43,12.58-3.81.85-.28,1.64-.45,2.35-.97,2.61-1.88,3.13-6.58,4.01-9.36,2.18-6.91,4.9-13.66,6.98-20.61.75-2.5,1.19-5.27.76-7.86"/>
  <path class="cls-1" d="M54.42,22.49c-3.74-.78-7.39-1.87-11.11-2.7-3.69-.82-7.39-1.57-11.07-2.46-2.21-.54-4.67-.84-6.79-1.71-.1-.04-.63-.35-.68-.11-.3,1.46,0,3.18-.04,4.67-.07,2.14-.24,4.24-.63,6.33-.05.27-.56,1.57-.43,1.73.6.74,1.8,1.11,2.64,1.48,3.94,1.73,7.98,3.18,11.97,4.77,3.08,1.23,6.13,2.6,9.15,3.99.16.07,1.49.48,1.49.79,0,.15-.61.51-.67.56-1.53,1.23-3,2.54-4.54,3.77-2.44,1.95-5.17,3.51-7.56,5.52-1.07.9-2.23,1.68-3.25,2.64-.34.32-1.05.21-1.39-.02-2.23-1.48-3.71-4.05-5.14-6.22-1.08-1.65-2.03-4.57-3.92-5.51"/>
</svg>