<?xml version="1.0" encoding="UTF-8"?>
<svg id="Calque_1" data-name="Calque 1" xmlns="http://www.w3.org/2000/svg" viewBox="0 0 71.16 67.52">
  <defs>
    <style>
      .cls-1 {
        fill: none;
        stroke: #851dbf;
        stroke-linecap: round;
        stroke-width: 4px;
      }
    </style>
  </defs>
  <path class="cls-1" d="M44.48,6.68c-5.06,3.4-9.94,6.96-15.17,10.11-6.49,3.91-13.1,7.65-19.35,11.94-2.27,1.56-4.49,3.33-6.46,5.25-.73.7.62,2.13.96,2.73,2.54,4.48,5.13,8.9,7.53,13.45,1.63,3.09,3.52,6.36,5.88,8.97,1.48,1.64,3.62,4.21,6.11,4.18,4.67-.06,9.63-2.05,14.05-3.36,6.22-1.85,12.4-3.81,18.56-5.86.91-.3,12.19-3.99,11.76-4.9-3.76-7.87-6.99-16.03-10.94-23.8-2.43-4.78-5.71-9.23-9.66-12.89"/>
  <path class="cls-1" d="M35.18,42.86c3.54-1.94,7.12-4.06,10.98-5.3"/>
  <path class="cls-1" d="M39.77,42.06c1.5,1.68,2.69,3.43,3.76,5.39.42.77.84,1.39.61,2.3-.45,1.81-3.49,4.57-5.45,3.41"/>
  <path class="cls-1" d="M55.85,36.56c-2.14.12-4.27.19-5.6,2.08-.61.86-1.24,2.17-1,3.26.4,1.86,4.61,1.16,5.86,1.25,1.22.09,6.29.65,5.25,3-.87,1.96-4.15,2.74-6.09,2.6"/>
</svg>