<?xml version="1.0" encoding="UTF-8"?>
<svg id="Calque_1" data-name="Calque 1" xmlns="http://www.w3.org/2000/svg" viewBox="0 0 73.89 67.52">
  <defs>
    <style>
      .cls-1 {
        fill: none;
        stroke: #851dbf;
        stroke-linecap: round;
        stroke-width: 4px;
      }
    </style>
  </defs>
  <path class="cls-1" d="M45.96,5.61c-6,2.44-12.21,4.33-18.23,6.72-4.65,1.85-9.28,3.82-14.06,5.34-2.67.85-5.5,1.27-8.14,2.19-2,.7-1.21,2.87-.8,4.5,1.23,4.83,3.12,9.65,5.31,14.12.66,1.34,1.24,2.86,2.16,4.05.45.59,1.48.5,2.13.48,2.75-.09,5.41-.63,8.08-1.22,4.57-1.02,9.1-2.11,13.61-3.36,7.37-2.05,14.49-4.84,21.76-7.2.67-.22,2.15-.53,2.32-1.4.2-1.1-.43-2.49-.75-3.5-.59-1.88-1.25-3.74-1.95-5.59-1.38-3.63-3.51-6.82-5.14-10.32-.55-1.18-1.11-2.33-1.72-3.47-.27-.51-.46-.94-.52-1.5"/>
  <path class="cls-1" d="M12.12,44.48c-2.07,2.76-3.67,5.73-5.07,8.87-.62,1.4-1.27,2.72-1.47,4.25-.16,1.27.41,1.39,1.67,1.38,1.58-.02,3.19-.39,4.74-.64,3.48-.57,6.96-1.25,10.41-2.01,7.39-1.63,14.5-4.09,21.7-6.33,5.95-1.85,12.02-3.34,17.88-5.48,2.17-.79,4.33-1.64,6.48-2.47,1.02-.39,2.28-.61,3.21-1.2.36-.23.16-.41-.09-.74-1.22-1.54-2.42-3.18-3.71-4.65-1.47-1.67-3.21-3.08-5.39-3.5"/>
  <path class="cls-1" d="M17.05,48.48c.07-.04,1.32-.82,1.23-.32-.13.73-.16-.03-.1-.34"/>
  <path class="cls-1" d="M23.98,46.07c.24-.14,1.44-1.03,1.68-.38.18.49-.22,1.26-.61,1.55-.51.37-.48-.98.23-.49"/>
  <path class="cls-1" d="M32.82,44.1c.31-.14,2.32-1.41,2.12-.3-.09.47-.4,1.01-.83,1.24-.16.09-.33,0-.33-.2,0-.45.42-.65.73-.86"/>
  <path class="cls-1" d="M40.93,41.22c.31-.07.77-.17,1.09-.25.13-.03.44-.2.4-.07-.12.5-.61,1.07-.89,1.5-.3.45.2-.4.23-.44.27-.38.54-.57.98-.69"/>
  <path class="cls-1" d="M50.32,39.72c.21-.34,1.21-1.75,1.62-.87"/>
  <path class="cls-1" d="M57.22,36.7c.65-.52.71-.73,1.41-.39"/>
  <path class="cls-1" d="M54.44,43.35c-.09-.17-.66-1.09-.14-1.16.19-.03.05.36.03.43-.17.48-.54.77-1.02.9"/>
  <path class="cls-1" d="M46.38,45.65c-.07.01-1.67.43-1.4.05.29-.41-.09.47-.1.51"/>
  <path class="cls-1" d="M37.41,48.69l-1.02,1.04"/>
  <path class="cls-1" d="M29.97,51.73c.32-1.85-1.26.69-1.66.25"/>
  <path class="cls-1" d="M21.82,53.23c-.22.21-.95,1.26-1.32.71"/>
  <path class="cls-1" d="M12.98,55.68c.3-1.11.09-.35.35-1.3.09-.33.09-.33-.02-.06-.08.22-.17.43-.26.64"/>
  <path class="cls-1" d="M61.89,40.1c-.77,1.89.05.26.44.84"/>
</svg>