<?xml version="1.0" encoding="UTF-8"?>
<svg id="Calque_1" data-name="Calque 1" xmlns="http://www.w3.org/2000/svg" viewBox="0 0 74.98 67.52">
  <defs>
    <style>
      .cls-1 {
        fill: none;
        stroke: #851dbf;
        stroke-linecap: round;
        stroke-width: 6px;
      }
    </style>
  </defs>
  <path class="cls-1" d="M3,51.88c2.58-.59,5.48-.96,7.89-2.15,1.1-.54,2.1-1.25,3.21-1.78,1.37-.65,2.73-1.25,4.07-1.96.87-.46,1.06-.63.39-1.14-.86-.65-1.72-1.18-2.64-1.76-1.53-.97-2.2-2.3-2.87-3.96-1.58-3.91-3.14-9.4-2.65-13.66,1.85-15.91,21.11-19.58,33.97-16.96,7.35,1.5,15.57,4.69,20.83,10.25,4.04,4.26,6.31,10.87,5.44,16.8-.79,5.36-3.47,9.36-7.48,12.99-3.9,3.53-8.83,6.73-14.02,7.9-5.33,1.2-10.33.96-15.7.96-.88,0-1.44.42-2.26.78-2.26.98-4.15,1.61-6.68,1.61-4.1,0-8.12-1.25-11.97-2.57-1.96-.68-3.73-1.75-5.66-2.39"/>
</svg>