<?xml version="1.0" encoding="UTF-8"?>
<svg id="Calque_1" data-name="Calque 1" xmlns="http://www.w3.org/2000/svg" viewBox="0 0 73.89 66.52">
  <defs>
    <style>
      .cls-1 {
        fill: none;
        stroke: #851dbf;
        stroke-linecap: round;
        stroke-width: 6px;
      }
    </style>
  </defs>
  <path class="cls-1" d="M63.82,30.69c-3.28-1.73-6.74-2.96-10.12-4.46-.31-.14-.61-.28-.94-.36-.24-.06-.41-.9-.48-1.11-1.04-3.36-1.66-6.82-2.95-10.11-.48-1.23-.83-2.5-1.31-3.73-.15-.38-.25-.39-.59-.18-2.34,1.39-3.8,4.24-5.16,6.48-.96,1.58-1.94,3.15-2.85,4.76-.32.57-.65,1.36-1.11,1.83-.1.1-.15.22-.28.28-.27.13-.66.11-.96.17-.87.17-1.69.51-2.54.76-1.33.4-2.66.99-3.95,1.53-.86.36-1.82.53-2.62,1.01-.17.1-.33.2-.51.28-.34.15.87.96.94,1,2.09,1.4,4.14,2.54,6.52,3.4,1.39.51,2.75,1.08,4.11,1.68.26.12.51.22.79.29.22.06.15.96.16,1.09.24,3.11,1.47,6.14,2.34,9.12.05.17.07.49.19.63.12.14,1.24-.96,1.3-1.02,1.47-1.31,2.76-2.75,3.87-4.39,1.04-1.53,1.76-3.21,2.64-4.82.56-1.02.65-1.25,1.84-1.46,2.27-.4,4.52-.95,6.8-1.29,1.5-.22,2.91-.46,4.34-.97"/>
  <path class="cls-1" d="M27.42,55.92c-1.78-3.63-5.33-9.03-1.72-12.7.11-.11.87-.86.27-.68-1.26.39-2.48,1.1-3.61,1.77-.86.51-1.61,1.24-2.64,1.37-.57.08-1.15-.25-1.65-.49-.81-.39-1.59-.84-2.31-1.38-.03-.02-.71-.7-.79-.5-.11.27.82,1.38.94,1.59.62.99,1.19,1.98,1.53,3.1.6,1.97.23,3.71-.87,5.42-.38.59-.8,1.17-1.15,1.78-.35.6.82-.07,1.03-.17,1.53-.7,2.89-1.68,4.63-1.43,1.14.17,2.27.34,3.39.62.22.06-.2-.83-.24-.89-.51-1.06-1.34-1.96-2.02-2.92-.47-.66-.91-1.36-1.08-2.16-.03-.14.03-.58-.06-.66"/>
</svg>