<?xml version="1.0" encoding="UTF-8"?>
<svg id="Layer_1" xmlns="http://www.w3.org/2000/svg" version="1.1" viewBox="0 0 800 800">
  <!-- Generator: Adobe Illustrator 29.6.1, SVG Export Plug-In . SVG Version: 2.1.1 Build 9)  -->
  <defs>
    <style>
      .st0 {
        fill: #fff;
      }
    </style>
  </defs>
  <path class="st0" d="M711.11,230.89v188.89s-40.33,7.89-48.67,9-34.22,9.44-53.11-8.67c-29.11-28.44-132.33-131.22-132.33-131.22-13.31-10.83-32.11-11.77-46.44-2.33-26.22,13.78-65.22,34.11-81.44,42-17.85,10.44-40.79,4.42-51.22-13.43-2.84-4.86-4.55-10.29-5-15.9.73-14.67,9.8-27.63,23.33-33.33,37-22.22,115.11-66.67,147.67-83.56,19.78-11.11,34-11.11,61.22,11.11,33.44,28.78,63.78,54,63.78,54,7.27,5.19,16.44,6.93,25.11,4.78,37.44-7.78,97.11-21.33,97.11-21.33ZM300,550c7.36-16.88-.36-36.52-17.24-43.87-7-3.05-14.84-3.61-22.2-1.57,3.75-11.58,1.04-24.29-7.11-33.33-8.87-8.46-21.53-11.62-33.33-8.33,3.72-11.6.97-24.31-7.22-33.33-14.98-13.83-38.25-13.19-52.44,1.44-15.33,14.67-25.22,41.33-11.11,57.11s29.33,6.11,41.33,3.33c-3.33,11.89-13.33,23-1,38.56,12.33,15.56,29.33,6.11,41.33,3.33-3.33,11.89-12.89,24-1.11,38.44s31.56,6.78,44.44,2.78c-5,12.78-15.67,26.56-2,42.11s45.33,8.33,60.78-6.44c15.26-13.45,16.75-36.71,3.33-52-9.59-9.46-23.72-12.65-36.44-8.22ZM581.67,452l-119.22-118.67c-11.26-10.53-27.65-13.49-41.89-7.56-16.67,7.33-38.11,17.33-54.33,24.89-11.17,6.65-23.63,10.82-36.56,12.22-34.3.33-62.37-27.21-62.7-61.52-.21-21.7,10.93-41.93,29.37-53.37,25.89-17.67,82.44-48,82.44-48-14.4-15.14-34.69-23.25-55.56-22.22-38,0-117.56,52.22-117.56,52.22-17.06,8.91-37.27,9.44-54.78,1.44l-62-21.56v215.56s17.67,5.11,33.33,11.11c3.56-10.37,9.49-19.77,17.33-27.44,26.25-25.19,67.61-25.48,94.22-.67,7.13,7.36,12.26,16.43,14.89,26.33,9.64,3,18.38,8.35,25.44,15.56,7.16,7.5,12.25,16.73,14.78,26.78,20.68,6.42,36.38,23.35,41.22,44.44,10.09,2.87,19.25,8.35,26.56,15.89,13.82,14.46,19.93,34.64,16.44,54.33h0s8.89,10,14.33,15.44c10.68,10.68,27.99,10.68,38.67,0s10.68-27.99,0-38.67c0,0,22.22,27.56,47.56,11.11,22.22-15.56,18.78-34,8.22-44.44,12.59,14.99,34.95,16.93,49.94,4.34,1.08-.91,2.1-1.87,3.06-2.9,9.88-10.01,10.51-25.91,1.44-36.67,0,0,14.78,20.11,44.44,1.33,21-17.78,11.11-38.11,0-48.78l.89-.56Z"/>
</svg>